<?xml version="1.0" encoding="UTF-8"?>
<svg id="Ebene_1" data-name="Ebene 1" xmlns="http://www.w3.org/2000/svg" viewBox="0 0 479.91 480.57">
  <g>
    <rect x="329.98" y="330.64" width="149.43" height="149.43"/>
    <path d="M478.91,331.14v148.43h-148.43v-148.43h148.43M479.91,330.14h-150.43v150.43h150.43v-150.43h0Z"/>
  </g>
  <g>
    <rect x="167.24" y="330.64" width="149.43" height="149.43"/>
    <path d="M316.17,331.14v148.43h-148.43v-148.43h148.43M317.17,330.14h-150.43v150.43h150.43v-150.43h0Z"/>
  </g>
  <g>
    <rect x=".5" y="330.64" width="149.43" height="149.43"/>
    <path d="M149.43,331.14v148.43H1v-148.43h148.43M150.43,330.14H0v150.43h150.43v-150.43h0Z"/>
  </g>
  <g>
    <rect x="329.98" y="165.57" width="149.43" height="149.43"/>
    <path d="M478.91,166.07v148.43h-148.43v-148.43h148.43M479.91,165.07h-150.43v150.43h150.43v-150.43h0Z"/>
  </g>
  <g>
    <rect x="165.24" y="165.57" width="149.43" height="149.43"/>
    <path d="M314.17,166.07v148.43h-148.43v-148.43h148.43M315.17,165.07h-150.43v150.43h150.43v-150.43h0Z"/>
  </g>
  <g>
    <rect x=".5" y="165.57" width="149.43" height="149.43"/>
    <path d="M149.43,166.07v148.43H1v-148.43h148.43M150.43,165.07H0v150.43h150.43v-150.43h0Z"/>
  </g>
  <g>
    <rect x="329.98" y=".5" width="149.43" height="149.43"/>
    <path d="M478.91,1v148.43h-148.43V1h148.43M479.91,0h-150.43v150.43h150.43V0h0Z"/>
  </g>
  <g>
    <rect x="165.24" y=".5" width="149.43" height="149.43"/>
    <path d="M314.17,1v148.43h-148.43V1h148.43M315.17,0h-150.43v150.43h150.43V0h0Z"/>
  </g>
  <g>
    <rect x=".5" y=".5" width="149.43" height="149.43"/>
    <path d="M149.43,1v148.43H1V1h148.43M150.43,0H0v150.43h150.43V0h0Z"/>
  </g>
</svg>