<?xml version="1.0" encoding="UTF-8"?>
<svg id="Ebene_1" data-name="Ebene 1" xmlns="http://www.w3.org/2000/svg" viewBox="0 0 482.01 481.25">
  <g>
    <rect x="123.81" y="123.25" width="110.69" height="110.69"/>
    <path d="M233.99,123.75v109.69h-109.69v-109.69h109.69M234.99,122.75h-111.69v111.69h111.69v-111.69h0Z"/>
  </g>
  <g>
    <rect x="1.49" y="123.25" width="110.69" height="110.69"/>
    <path d="M111.68,123.75v109.69H1.99v-109.69h109.69M112.68,122.75H.99v111.69h111.69v-111.69h0Z"/>
  </g>
  <g>
    <rect x="123.81" y=".69" width="110.69" height="110.69"/>
    <path d="M233.99,1.19v109.69h-109.69V1.19h109.69M234.99.19h-111.69v111.69h111.69V.19h0Z"/>
  </g>
  <g>
    <rect x="1.49" y=".69" width="110.69" height="110.69"/>
    <path d="M111.68,1.19v109.69H1.99V1.19h109.69M112.68.19H.99v111.69h111.69V.19h0Z"/>
  </g>
  <g>
    <rect x="370.34" y="123.59" width="111.17" height="111.17"/>
    <path d="M481.01,124.09v110.17h-110.17v-110.17h110.17M482.01,123.09h-112.17v112.17h112.17v-112.17h0Z"/>
  </g>
  <g>
    <rect x="247.49" y="123.59" width="111.17" height="111.17"/>
    <path d="M358.16,124.09v110.17h-110.17v-110.17h110.17M359.16,123.09h-112.17v112.17h112.17v-112.17h0Z"/>
  </g>
  <g>
    <rect x="370.34" y=".5" width="111.17" height="111.17"/>
    <path d="M481.01,1v110.17h-110.17V1h110.17M482.01,0h-112.17v112.17h112.17V0h0Z"/>
  </g>
  <g>
    <rect x="247.49" y=".5" width="111.17" height="111.17"/>
    <path d="M358.16,1v110.17h-110.17V1h110.17M359.16,0h-112.17v112.17h112.17V0h0Z"/>
  </g>
  <g>
    <rect x="122.81" y="369.24" width="110.69" height="110.69"/>
    <path d="M233,369.74v109.69h-109.69v-109.69h109.69M234,368.74h-111.69v111.69h111.69v-111.69h0Z"/>
  </g>
  <g>
    <rect x=".5" y="369.24" width="110.69" height="110.69"/>
    <path d="M110.69,369.74v109.69H1v-109.69h109.69M111.69,368.74H0v111.69h111.69v-111.69h0Z"/>
  </g>
  <g>
    <rect x="122.81" y="246.68" width="110.69" height="110.69"/>
    <path d="M233,247.18v109.69h-109.69v-109.69h109.69M234,246.18h-111.69v111.69h111.69v-111.69h0Z"/>
  </g>
  <g>
    <rect x=".5" y="246.68" width="110.69" height="110.69"/>
    <path d="M110.69,247.18v109.69H1v-109.69h109.69M111.69,246.18H0v111.69h111.69v-111.69h0Z"/>
  </g>
  <g>
    <rect x="369.34" y="369.58" width="111.17" height="111.17"/>
    <path d="M480.01,370.08v110.17h-110.17v-110.17h110.17M481.01,369.08h-112.17v112.17h112.17v-112.17h0Z"/>
  </g>
  <g>
    <rect x="246.5" y="369.58" width="111.17" height="111.17"/>
    <path d="M357.17,370.08v110.17h-110.17v-110.17h110.17M358.17,369.08h-112.17v112.17h112.17v-112.17h0Z"/>
  </g>
  <g>
    <rect x="369.34" y="246.49" width="111.17" height="111.17"/>
    <path d="M480.01,246.99v110.17h-110.17v-110.17h110.17M481.01,245.99h-112.17v112.17h112.17v-112.17h0Z"/>
  </g>
  <g>
    <rect x="246.5" y="246.49" width="111.17" height="111.17"/>
    <path d="M357.17,246.99v110.17h-110.17v-110.17h110.17M358.17,245.99h-112.17v112.17h112.17v-112.17h0Z"/>
  </g>
</svg>