<?xml version="1.0" encoding="UTF-8"?>
<svg id="Ebene_1" data-name="Ebene 1" xmlns="http://www.w3.org/2000/svg" viewBox="0 0 482.9 481.34">
  <g>
    <rect x="197.79" y="195.18" width="87.71" height="87.71"/>
    <path d="M285,195.68v86.71h-86.71v-86.71h86.71M286,194.68h-88.71v88.71h88.71v-88.71h0Z"/>
  </g>
  <g>
    <rect x="101.83" y="195.18" width="87.71" height="87.71"/>
    <path d="M189.03,195.68v86.71h-86.71v-86.71h86.71M190.03,194.68h-88.71v88.71h88.71v-88.71h0Z"/>
  </g>
  <g>
    <rect x="3.5" y="195.18" width="87.71" height="87.71"/>
    <path d="M90.71,195.68v86.71H4v-86.71h86.71M91.71,194.68H3v88.71h88.71v-88.71h0Z"/>
  </g>
  <g>
    <rect x="197.79" y="97.84" width="87.71" height="87.71"/>
    <path d="M285,98.34v86.71h-86.71v-86.71h86.71M286,97.34h-88.71v88.71h88.71v-88.71h0Z"/>
  </g>
  <g>
    <rect x="100.65" y="97.84" width="87.71" height="87.71"/>
    <path d="M187.85,98.34v86.71h-86.71v-86.71h86.71M188.85,97.34h-88.71v88.71h88.71v-88.71h0Z"/>
  </g>
  <g>
    <rect x="3.5" y="97.84" width="87.71" height="87.71"/>
    <path d="M90.71,98.34v86.71H4v-86.71h86.71M91.71,97.34H3v88.71h88.71v-88.71h0Z"/>
  </g>
  <g>
    <rect x="197.79" y=".5" width="87.71" height="87.71"/>
    <path d="M285,1v86.71h-86.71V1h86.71M286,0h-88.71v88.71h88.71V0h0Z"/>
  </g>
  <g>
    <rect x="100.65" y=".5" width="87.71" height="87.71"/>
    <path d="M187.85,1v86.71h-86.71V1h86.71M188.85,0h-88.71v88.71h88.71V0h0Z"/>
  </g>
  <g>
    <rect x="3.5" y=".5" width="87.71" height="87.71"/>
    <path d="M90.71,1v86.71H4V1h86.71M91.71,0H3v88.71h88.71V0h0Z"/>
  </g>
  <g>
    <rect x="394.01" y="196.01" width="88.04" height="88.04"/>
    <path d="M481.55,196.51v87.04h-87.04v-87.04h87.04M482.55,195.51h-89.04v89.04h89.04v-89.04h0Z"/>
  </g>
  <g>
    <rect x="297.68" y="196.01" width="88.04" height="88.04"/>
    <path d="M385.23,196.51v87.04h-87.04v-87.04h87.04M386.23,195.51h-89.04v89.04h89.04v-89.04h0Z"/>
  </g>
  <g>
    <rect x="394.01" y="98.3" width="88.04" height="88.04"/>
    <path d="M481.55,98.8v87.04h-87.04v-87.04h87.04M482.55,97.8h-89.04v89.04h89.04v-89.04h0Z"/>
  </g>
  <g>
    <rect x="296.5" y="98.3" width="88.04" height="88.04"/>
    <path d="M384.04,98.8v87.04h-87.04v-87.04h87.04M385.04,97.8h-89.04v89.04h89.04v-89.04h0Z"/>
  </g>
  <g>
    <rect x="394.01" y=".59" width="88.04" height="88.04"/>
    <path d="M481.55,1.09v87.04h-87.04V1.09h87.04M482.55.09h-89.04v89.04h89.04V.09h0Z"/>
  </g>
  <g>
    <rect x="296.5" y=".59" width="88.04" height="88.04"/>
    <path d="M384.04,1.09v87.04h-87.04V1.09h87.04M385.04.09h-89.04v89.04h89.04V.09h0Z"/>
  </g>
  <g>
    <rect x="196.15" y="391.35" width="88.33" height="88.33"/>
    <path d="M283.98,391.85v87.33h-87.33v-87.33h87.33M284.98,390.85h-89.33v89.33h89.33v-89.33h0Z"/>
  </g>
  <g>
    <rect x="99.51" y="391.35" width="88.33" height="88.33"/>
    <path d="M187.34,391.85v87.33h-87.33v-87.33h87.33M188.34,390.85h-89.33v89.33h89.33v-89.33h0Z"/>
  </g>
  <g>
    <rect x=".5" y="391.35" width="88.33" height="88.33"/>
    <path d="M88.33,391.85v87.33H1v-87.33h87.33M89.33,390.85H0v89.33h89.33v-89.33h0Z"/>
  </g>
  <g>
    <rect x="196.15" y="293.33" width="88.33" height="88.33"/>
    <path d="M283.98,293.83v87.33h-87.33v-87.33h87.33M284.98,292.83h-89.33v89.33h89.33v-89.33h0Z"/>
  </g>
  <g>
    <rect x="98.32" y="293.33" width="88.33" height="88.33"/>
    <path d="M186.15,293.83v87.33h-87.33v-87.33h87.33M187.15,292.83h-89.33v89.33h89.33v-89.33h0Z"/>
  </g>
  <g>
    <rect x=".5" y="293.33" width="88.33" height="88.33"/>
    <path d="M88.33,293.83v87.33H1v-87.33h87.33M89.33,292.83H0v89.33h89.33v-89.33h0Z"/>
  </g>
  <g>
    <rect x="393.74" y="392.18" width="88.66" height="88.66"/>
    <path d="M481.9,392.68v87.66h-87.66v-87.66h87.66M482.9,391.68h-89.66v89.66h89.66v-89.66h0Z"/>
  </g>
  <g>
    <rect x="296.74" y="392.18" width="88.66" height="88.66"/>
    <path d="M384.9,392.68v87.66h-87.66v-87.66h87.66M385.9,391.68h-89.66v89.66h89.66v-89.66h0Z"/>
  </g>
  <g>
    <rect x="393.74" y="293.79" width="88.66" height="88.66"/>
    <path d="M481.9,294.29v87.66h-87.66v-87.66h87.66M482.9,293.29h-89.66v89.66h89.66v-89.66h0Z"/>
  </g>
  <g>
    <rect x="295.55" y="293.79" width="88.66" height="88.66"/>
    <path d="M383.71,294.29v87.66h-87.66v-87.66h87.66M384.71,293.29h-89.66v89.66h89.66v-89.66h0Z"/>
  </g>
</svg>