<?xml version="1.0" encoding="UTF-8"?>
<svg id="Ebene_1" data-name="Ebene 1" xmlns="http://www.w3.org/2000/svg" viewBox="0 0 480.62 482.56">
  <g>
    <rect x="163.59" y="164.03" width="73.29" height="73.29"/>
    <path d="M236.38,164.53v72.29h-72.29v-72.29h72.29M237.38,163.53h-74.29v74.29h74.29v-74.29h0Z"/>
  </g>
  <g>
    <rect x="83.23" y="164.03" width="73.29" height="73.29"/>
    <path d="M156.01,164.53v72.29h-72.29v-72.29h72.29M157.01,163.53h-74.29v74.29h74.29v-74.29h0Z"/>
  </g>
  <g>
    <rect x=".88" y="164.03" width="73.29" height="73.29"/>
    <path d="M73.67,164.53v72.29H1.38v-72.29h72.29M74.67,163.53H.38v74.29h74.29v-74.29h0Z"/>
  </g>
  <g>
    <rect x="163.59" y="82.51" width="73.29" height="73.29"/>
    <path d="M236.38,83.01v72.29h-72.29v-72.29h72.29M237.38,82.01h-74.29v74.29h74.29v-74.29h0Z"/>
  </g>
  <g>
    <rect x="82.24" y="82.51" width="73.29" height="73.29"/>
    <path d="M155.03,83.01v72.29h-72.29v-72.29h72.29M156.03,82.01h-74.29v74.29h74.29v-74.29h0Z"/>
  </g>
  <g>
    <rect x=".88" y="82.51" width="73.29" height="73.29"/>
    <path d="M73.67,83.01v72.29H1.38v-72.29h72.29M74.67,82.01H.38v74.29h74.29v-74.29h0Z"/>
  </g>
  <g>
    <rect x="163.59" y=".99" width="73.29" height="73.29"/>
    <path d="M236.38,1.49v72.29h-72.29V1.49h72.29M237.38.49h-74.29v74.29h74.29V.49h0Z"/>
  </g>
  <g>
    <rect x="82.24" y=".99" width="73.29" height="73.29"/>
    <path d="M155.03,1.49v72.29h-72.29V1.49h72.29M156.03.49h-74.29v74.29h74.29V.49h0Z"/>
  </g>
  <g>
    <rect x=".88" y=".99" width="73.29" height="73.29"/>
    <path d="M73.67,1.49v72.29H1.38V1.49h72.29M74.67.49H.38v74.29h74.29V.49h0Z"/>
  </g>
  <g>
    <rect x="406.76" y="163.7" width="73.36" height="73.36"/>
    <path d="M479.62,164.2v72.36h-72.36v-72.36h72.36M480.62,163.2h-74.36v74.36h74.36v-74.36h0Z"/>
  </g>
  <g>
    <rect x="326.31" y="163.7" width="73.36" height="73.36"/>
    <path d="M399.17,164.2v72.36h-72.36v-72.36h72.36M400.17,163.2h-74.36v74.36h74.36v-74.36h0Z"/>
  </g>
  <g>
    <rect x="243.88" y="163.7" width="73.36" height="73.36"/>
    <path d="M316.74,164.2v72.36h-72.36v-72.36h72.36M317.74,163.2h-74.36v74.36h74.36v-74.36h0Z"/>
  </g>
  <g>
    <rect x="406.76" y="82.1" width="73.36" height="73.36"/>
    <path d="M479.62,82.6v72.36h-72.36v-72.36h72.36M480.62,81.6h-74.36v74.36h74.36v-74.36h0Z"/>
  </g>
  <g>
    <rect x="325.32" y="82.1" width="73.36" height="73.36"/>
    <path d="M398.18,82.6v72.36h-72.36v-72.36h72.36M399.18,81.6h-74.36v74.36h74.36v-74.36h0Z"/>
  </g>
  <g>
    <rect x="243.88" y="82.1" width="73.36" height="73.36"/>
    <path d="M316.74,82.6v72.36h-72.36v-72.36h72.36M317.74,81.6h-74.36v74.36h74.36v-74.36h0Z"/>
  </g>
  <g>
    <rect x="406.76" y=".5" width="73.36" height="73.36"/>
    <path d="M479.62,1v72.36h-72.36V1h72.36M480.62,0h-74.36v74.36h74.36V0h0Z"/>
  </g>
  <g>
    <rect x="325.32" y=".5" width="73.36" height="73.36"/>
    <path d="M398.18,1v72.36h-72.36V1h72.36M399.18,0h-74.36v74.36h74.36V0h0Z"/>
  </g>
  <g>
    <rect x="243.88" y=".5" width="73.36" height="73.36"/>
    <path d="M316.74,1v72.36h-72.36V1h72.36M317.74,0h-74.36v74.36h74.36V0h0Z"/>
  </g>
  <g>
    <rect x="163.21" y="408.77" width="73.29" height="73.29"/>
    <path d="M236,409.27v72.29h-72.29v-72.29h72.29M237,408.27h-74.29v74.29h74.29v-74.29h0Z"/>
  </g>
  <g>
    <rect x="82.84" y="408.77" width="73.29" height="73.29"/>
    <path d="M155.63,409.27v72.29h-72.29v-72.29h72.29M156.63,408.27h-74.29v74.29h74.29v-74.29h0Z"/>
  </g>
  <g>
    <rect x=".5" y="408.77" width="73.29" height="73.29"/>
    <path d="M73.29,409.27v72.29H1v-72.29h72.29M74.29,408.27H0v74.29h74.29v-74.29h0Z"/>
  </g>
  <g>
    <rect x="163.21" y="327.25" width="73.29" height="73.29"/>
    <path d="M236,327.75v72.29h-72.29v-72.29h72.29M237,326.75h-74.29v74.29h74.29v-74.29h0Z"/>
  </g>
  <g>
    <rect x="81.86" y="327.25" width="73.29" height="73.29"/>
    <path d="M154.64,327.75v72.29h-72.29v-72.29h72.29M155.64,326.75h-74.29v74.29h74.29v-74.29h0Z"/>
  </g>
  <g>
    <rect x=".5" y="327.25" width="73.29" height="73.29"/>
    <path d="M73.29,327.75v72.29H1v-72.29h72.29M74.29,326.75H0v74.29h74.29v-74.29h0Z"/>
  </g>
  <g>
    <rect x="163.21" y="245.73" width="73.29" height="73.29"/>
    <path d="M236,246.23v72.29h-72.29v-72.29h72.29M237,245.23h-74.29v74.29h74.29v-74.29h0Z"/>
  </g>
  <g>
    <rect x="81.86" y="245.73" width="73.29" height="73.29"/>
    <path d="M154.64,246.23v72.29h-72.29v-72.29h72.29M155.64,245.23h-74.29v74.29h74.29v-74.29h0Z"/>
  </g>
  <g>
    <rect x=".5" y="245.73" width="73.29" height="73.29"/>
    <path d="M73.29,246.23v72.29H1v-72.29h72.29M74.29,245.23H0v74.29h74.29v-74.29h0Z"/>
  </g>
  <g>
    <rect x="406.37" y="408.44" width="73.36" height="73.36"/>
    <path d="M479.24,408.94v72.36h-72.36v-72.36h72.36M480.24,407.94h-74.36v74.36h74.36v-74.36h0Z"/>
  </g>
  <g>
    <rect x="325.93" y="408.44" width="73.36" height="73.36"/>
    <path d="M398.79,408.94v72.36h-72.36v-72.36h72.36M399.79,407.94h-74.36v74.36h74.36v-74.36h0Z"/>
  </g>
  <g>
    <rect x="243.5" y="408.44" width="73.36" height="73.36"/>
    <path d="M316.36,408.94v72.36h-72.36v-72.36h72.36M317.36,407.94h-74.36v74.36h74.36v-74.36h0Z"/>
  </g>
  <g>
    <rect x="406.37" y="326.84" width="73.36" height="73.36"/>
    <path d="M479.24,327.34v72.36h-72.36v-72.36h72.36M480.24,326.34h-74.36v74.36h74.36v-74.36h0Z"/>
  </g>
  <g>
    <rect x="324.94" y="326.84" width="73.36" height="73.36"/>
    <path d="M397.8,327.34v72.36h-72.36v-72.36h72.36M398.8,326.34h-74.36v74.36h74.36v-74.36h0Z"/>
  </g>
  <g>
    <rect x="243.5" y="326.84" width="73.36" height="73.36"/>
    <path d="M316.36,327.34v72.36h-72.36v-72.36h72.36M317.36,326.34h-74.36v74.36h74.36v-74.36h0Z"/>
  </g>
  <g>
    <rect x="406.37" y="245.24" width="73.36" height="73.36"/>
    <path d="M479.24,245.74v72.36h-72.36v-72.36h72.36M480.24,244.74h-74.36v74.36h74.36v-74.36h0Z"/>
  </g>
  <g>
    <rect x="324.94" y="245.24" width="73.36" height="73.36"/>
    <path d="M397.8,245.74v72.36h-72.36v-72.36h72.36M398.8,244.74h-74.36v74.36h74.36v-74.36h0Z"/>
  </g>
  <g>
    <rect x="243.5" y="245.24" width="73.36" height="73.36"/>
    <path d="M316.36,245.74v72.36h-72.36v-72.36h72.36M317.36,244.74h-74.36v74.36h74.36v-74.36h0Z"/>
  </g>
</svg>