<?xml version="1.0" encoding="UTF-8"?>
<svg id="Ebene_1" data-name="Ebene 1" xmlns="http://www.w3.org/2000/svg" viewBox="0 0 473.72 478.04">
  <g>
    <rect x="138.4" y="138.77" width="61.81" height="61.81"/>
    <path d="M199.72,139.27v60.81h-60.81v-60.81h60.81M200.72,138.27h-62.81v62.81h62.81v-62.81h0Z"/>
  </g>
  <g>
    <rect x="70.45" y="138.77" width="61.81" height="61.81"/>
    <path d="M131.76,139.27v60.81h-60.81v-60.81h60.81M132.76,138.27h-62.81v62.81h62.81v-62.81h0Z"/>
  </g>
  <g>
    <rect x=".82" y="138.77" width="61.81" height="61.81"/>
    <path d="M62.14,139.27v60.81H1.32v-60.81h60.81M63.14,138.27H.32v62.81h62.81v-62.81h0Z"/>
  </g>
  <g>
    <rect x="138.4" y="69.84" width="61.81" height="61.81"/>
    <path d="M199.72,70.34v60.81h-60.81v-60.81h60.81M200.72,69.34h-62.81v62.81h62.81v-62.81h0Z"/>
  </g>
  <g>
    <rect x="69.61" y="69.84" width="61.81" height="61.81"/>
    <path d="M130.93,70.34v60.81h-60.81v-60.81h60.81M131.93,69.34h-62.81v62.81h62.81v-62.81h0Z"/>
  </g>
  <g>
    <rect x=".82" y="69.84" width="61.81" height="61.81"/>
    <path d="M62.14,70.34v60.81H1.32v-60.81h60.81M63.14,69.34H.32v62.81h62.81v-62.81h0Z"/>
  </g>
  <g>
    <rect x="138.4" y=".92" width="61.81" height="61.81"/>
    <path d="M199.72,1.42v60.81h-60.81V1.42h60.81M200.72.42h-62.81v62.81h62.81V.42h0Z"/>
  </g>
  <g>
    <rect x="69.61" y=".92" width="61.81" height="61.81"/>
    <path d="M130.93,1.42v60.81h-60.81V1.42h60.81M131.93.42h-62.81v62.81h62.81V.42h0Z"/>
  </g>
  <g>
    <rect x=".82" y=".92" width="61.81" height="61.81"/>
    <path d="M62.14,1.42v60.81H1.32V1.42h60.81M63.14.42H.32v62.81h62.81V.42h0Z"/>
  </g>
  <g>
    <rect x="344.01" y="138.49" width="61.88" height="61.88"/>
    <path d="M405.38,138.99v60.88h-60.88v-60.88h60.88M406.38,137.99h-62.88v62.88h62.88v-62.88h0Z"/>
  </g>
  <g>
    <rect x="275.98" y="138.49" width="61.88" height="61.88"/>
    <path d="M337.36,138.99v60.88h-60.88v-60.88h60.88M338.36,137.99h-62.88v62.88h62.88v-62.88h0Z"/>
  </g>
  <g>
    <rect x="206.29" y="138.49" width="61.88" height="61.88"/>
    <path d="M267.66,138.99v60.88h-60.88v-60.88h60.88M268.66,137.99h-62.88v62.88h62.88v-62.88h0Z"/>
  </g>
  <g>
    <rect x="344.01" y="69.5" width="61.88" height="61.88"/>
    <path d="M405.38,70v60.88h-60.88v-60.88h60.88M406.38,69h-62.88v62.88h62.88v-62.88h0Z"/>
  </g>
  <g>
    <rect x="275.15" y="69.5" width="61.88" height="61.88"/>
    <path d="M336.52,70v60.88h-60.88v-60.88h60.88M337.52,69h-62.88v62.88h62.88v-62.88h0Z"/>
  </g>
  <g>
    <rect x="206.29" y="69.5" width="61.88" height="61.88"/>
    <path d="M267.66,70v60.88h-60.88v-60.88h60.88M268.66,69h-62.88v62.88h62.88v-62.88h0Z"/>
  </g>
  <g>
    <rect x="344.01" y=".5" width="61.88" height="61.88"/>
    <path d="M405.38,1v60.88h-60.88V1h60.88M406.38,0h-62.88v62.88h62.88V0h0Z"/>
  </g>
  <g>
    <rect x="275.15" y=".5" width="61.88" height="61.88"/>
    <path d="M336.52,1v60.88h-60.88V1h60.88M337.52,0h-62.88v62.88h62.88V0h0Z"/>
  </g>
  <g>
    <rect x="206.29" y=".5" width="61.88" height="61.88"/>
    <path d="M267.66,1v60.88h-60.88V1h60.88M268.66,0h-62.88v62.88h62.88V0h0Z"/>
  </g>
  <g>
    <rect x="138.08" y="345.71" width="61.81" height="61.81"/>
    <path d="M199.39,346.21v60.81h-60.81v-60.81h60.81M200.39,345.21h-62.81v62.81h62.81v-62.81h0Z"/>
  </g>
  <g>
    <rect x="70.12" y="345.71" width="61.81" height="61.81"/>
    <path d="M131.44,346.21v60.81h-60.81v-60.81h60.81M132.44,345.21h-62.81v62.81h62.81v-62.81h0Z"/>
  </g>
  <g>
    <rect x=".5" y="345.71" width="61.81" height="61.81"/>
    <path d="M61.81,346.21v60.81H1v-60.81h60.81M62.81,345.21H0v62.81h62.81v-62.81h0Z"/>
  </g>
  <g>
    <rect x="138.08" y="276.78" width="61.81" height="61.81"/>
    <path d="M199.39,277.28v60.81h-60.81v-60.81h60.81M200.39,276.28h-62.81v62.81h62.81v-62.81h0Z"/>
  </g>
  <g>
    <rect x="69.29" y="276.78" width="61.81" height="61.81"/>
    <path d="M130.6,277.28v60.81h-60.81v-60.81h60.81M131.6,276.28h-62.81v62.81h62.81v-62.81h0Z"/>
  </g>
  <g>
    <rect x=".5" y="276.78" width="61.81" height="61.81"/>
    <path d="M61.81,277.28v60.81H1v-60.81h60.81M62.81,276.28H0v62.81h62.81v-62.81h0Z"/>
  </g>
  <g>
    <rect x="138.08" y="207.85" width="61.81" height="61.81"/>
    <path d="M199.39,208.35v60.81h-60.81v-60.81h60.81M200.39,207.35h-62.81v62.81h62.81v-62.81h0Z"/>
  </g>
  <g>
    <rect x="69.29" y="207.85" width="61.81" height="61.81"/>
    <path d="M130.6,208.35v60.81h-60.81v-60.81h60.81M131.6,207.35h-62.81v62.81h62.81v-62.81h0Z"/>
  </g>
  <g>
    <rect x=".5" y="207.85" width="61.81" height="61.81"/>
    <path d="M61.81,208.35v60.81H1v-60.81h60.81M62.81,207.35H0v62.81h62.81v-62.81h0Z"/>
  </g>
  <g>
    <rect x="343.68" y="345.43" width="61.88" height="61.88"/>
    <path d="M405.06,345.93v60.88h-60.88v-60.88h60.88M406.06,344.93h-62.88v62.88h62.88v-62.88h0Z"/>
  </g>
  <g>
    <rect x="275.66" y="345.43" width="61.88" height="61.88"/>
    <path d="M337.04,345.93v60.88h-60.88v-60.88h60.88M338.04,344.93h-62.88v62.88h62.88v-62.88h0Z"/>
  </g>
  <g>
    <rect x="205.97" y="345.43" width="61.88" height="61.88"/>
    <path d="M267.34,345.93v60.88h-60.88v-60.88h60.88M268.34,344.93h-62.88v62.88h62.88v-62.88h0Z"/>
  </g>
  <g>
    <rect x="343.68" y="276.43" width="61.88" height="61.88"/>
    <path d="M405.06,276.93v60.88h-60.88v-60.88h60.88M406.06,275.93h-62.88v62.88h62.88v-62.88h0Z"/>
  </g>
  <g>
    <rect x="274.82" y="276.43" width="61.88" height="61.88"/>
    <path d="M336.2,276.93v60.88h-60.88v-60.88h60.88M337.2,275.93h-62.88v62.88h62.88v-62.88h0Z"/>
  </g>
  <g>
    <rect x="205.97" y="276.43" width="61.88" height="61.88"/>
    <path d="M267.34,276.93v60.88h-60.88v-60.88h60.88M268.34,275.93h-62.88v62.88h62.88v-62.88h0Z"/>
  </g>
  <g>
    <rect x="343.68" y="207.43" width="61.88" height="61.88"/>
    <path d="M405.06,207.93v60.88h-60.88v-60.88h60.88M406.06,206.93h-62.88v62.88h62.88v-62.88h0Z"/>
  </g>
  <g>
    <rect x="274.82" y="207.43" width="61.88" height="61.88"/>
    <path d="M336.2,207.93v60.88h-60.88v-60.88h60.88M337.2,206.93h-62.88v62.88h62.88v-62.88h0Z"/>
  </g>
  <g>
    <rect x="205.97" y="207.43" width="61.88" height="61.88"/>
    <path d="M267.34,207.93v60.88h-60.88v-60.88h60.88M268.34,206.93h-62.88v62.88h62.88v-62.88h0Z"/>
  </g>
  <g>
    <rect x="411.34" y="138.9" width="61.88" height="61.88"/>
    <path d="M472.72,139.4v60.88h-60.88v-60.88h60.88M473.72,138.4h-62.88v62.88h62.88v-62.88h0Z"/>
  </g>
  <g>
    <rect x="411.34" y="69.91" width="61.88" height="61.88"/>
    <path d="M472.72,70.41v60.88h-60.88v-60.88h60.88M473.72,69.41h-62.88v62.88h62.88v-62.88h0Z"/>
  </g>
  <g>
    <rect x="411.34" y=".91" width="61.88" height="61.88"/>
    <path d="M472.72,1.41v60.88h-60.88V1.41h60.88M473.72.41h-62.88v62.88h62.88V.41h0Z"/>
  </g>
  <g>
    <rect x="411.02" y="345.84" width="61.88" height="61.88"/>
    <path d="M472.4,346.34v60.88h-60.88v-60.88h60.88M473.4,345.34h-62.88v62.88h62.88v-62.88h0Z"/>
  </g>
  <g>
    <rect x="411.02" y="276.84" width="61.88" height="61.88"/>
    <path d="M472.4,277.34v60.88h-60.88v-60.88h60.88M473.4,276.34h-62.88v62.88h62.88v-62.88h0Z"/>
  </g>
  <g>
    <rect x="411.02" y="207.84" width="61.88" height="61.88"/>
    <path d="M472.4,208.34v60.88h-60.88v-60.88h60.88M473.4,207.34h-62.88v62.88h62.88v-62.88h0Z"/>
  </g>
  <g>
    <rect x="138.17" y="415.53" width="61.81" height="61.81"/>
    <path d="M199.48,416.03v60.81h-60.81v-60.81h60.81M200.48,415.03h-62.81v62.81h62.81v-62.81h0Z"/>
  </g>
  <g>
    <rect x="70.21" y="415.53" width="61.81" height="61.81"/>
    <path d="M131.53,416.03v60.81h-60.81v-60.81h60.81M132.53,415.03h-62.81v62.81h62.81v-62.81h0Z"/>
  </g>
  <g>
    <rect x=".59" y="415.53" width="61.81" height="61.81"/>
    <path d="M61.9,416.03v60.81H1.09v-60.81h60.81M62.9,415.03H.09v62.81h62.81v-62.81h0Z"/>
  </g>
  <g>
    <rect x="343.77" y="415.25" width="61.88" height="61.88"/>
    <path d="M405.15,415.75v60.88h-60.88v-60.88h60.88M406.15,414.75h-62.88v62.88h62.88v-62.88h0Z"/>
  </g>
  <g>
    <rect x="275.75" y="415.25" width="61.88" height="61.88"/>
    <path d="M337.12,415.75v60.88h-60.88v-60.88h60.88M338.12,414.75h-62.88v62.88h62.88v-62.88h0Z"/>
  </g>
  <g>
    <rect x="206.05" y="415.25" width="61.88" height="61.88"/>
    <path d="M267.43,415.75v60.88h-60.88v-60.88h60.88M268.43,414.75h-62.88v62.88h62.88v-62.88h0Z"/>
  </g>
  <g>
    <rect x="411.11" y="415.66" width="61.88" height="61.88"/>
    <path d="M472.48,416.16v60.88h-60.88v-60.88h60.88M473.48,415.16h-62.88v62.88h62.88v-62.88h0Z"/>
  </g>
</svg>