<?xml version="1.0" encoding="UTF-8"?>
<svg id="Ebene_1" data-name="Ebene 1" xmlns="http://www.w3.org/2000/svg" viewBox="0 0 482 454.2">
  <path d="M192.45,27.58c-19.47,14.6-34.88,29.2-34.88,32.44.81,6.49,75.43,61.64,83.54,61.64,2.43,0,23.52-13.79,46.23-31.63l42.99-31.63-41.36-29.2C267.07,12.98,243.54,0,237.87,0c-4.87,0-25.95,12.17-45.42,27.58Z"/>
  <path d="M118.64,81.11c-8.11,4.87-6.49,17.84,8.11,60.02l17.84,53.53,35.69-25.95c19.47-13.79,35.69-25.95,35.69-26.77,0-1.62-19.47-17.03-42.99-34.88-27.58-20.28-47.04-30.01-54.34-25.95Z"/>
  <path d="M307.62,106.25c-23.52,17.84-42.99,33.25-42.99,34.88,0,.81,16.22,13.79,35.69,27.58l35.69,25.95,17.03-50.29c13.79-40.55,15.41-52.72,7.3-60.02s-19.47-2.43-52.72,21.9Z"/>
  <path d="M39.15,139.5C15.63,156.54-2.21,173.57.22,176.81c1.62,3.24,8.92,26.77,16.22,52.72l13.79,46.23,37.31-25.95c21.09-14.6,41.36-29.2,45.42-31.63,6.49-4.87-15.41-93.27-25.95-105.44-2.43-3.24-24.33,8.92-47.85,26.77Z"/>
  <path d="M378.18,158.97c-9.73,29.2-16.22,53.53-15.41,55.15,58.4,43.8,83.54,61.64,85.16,59.21,1.62-1.62,9.73-25.14,17.84-52.72l16.22-49.48-42.99-32.44-43.8-33.25-17.03,53.53Z"/>
  <path d="M190.01,191.41c-21.09,15.41-36.5,33.25-34.88,38.12,1.62,5.68,8.92,29.2,16.22,51.91l13.79,42.99h110.31l13.79-42.99c7.3-22.71,14.6-46.23,16.22-51.91,3.24-10.54-70.56-67.32-87.6-67.32-4.87,0-26.77,12.98-47.85,29.2Z"/>
  <path d="M80.52,272.52c-55.96,38.93-50.29,51.91,21.9,51.91h55.15l-12.98-40.55c-7.3-22.71-15.41-40.55-17.84-40.55s-23.52,12.98-46.23,29.2Z"/>
  <path d="M336.01,283.88l-12.98,40.55h55.96c47.85,0,55.96-2.43,55.96-14.6,0-11.36-67.32-66.51-81.92-66.51-2.43,0-9.73,17.84-17.03,40.55Z"/>
  <path d="M72.41,401.48l17.03,52.72h55.15c39.74,0,53.53-2.43,51.1-10.54-1.62-4.87-8.92-29.2-16.22-52.72l-13.79-42.18H55.38l17.03,52.72Z"/>
  <path d="M210.29,401.48c11.36,35.69,21.09,52.72,30.01,52.72s18.65-17.03,30.01-52.72l17.03-52.72h-94.08l17.03,52.72Z"/>
  <path d="M300.32,394.99c-7.3,25.95-14.6,49.48-17.03,52.72-1.62,4.06,21.9,6.49,51.91,6.49h55.96l17.03-52.72,17.03-52.72h-111.12l-13.79,46.23Z"/>
</svg>