<?xml version="1.0" encoding="UTF-8"?>
<svg id="Ebene_1" data-name="Ebene 1" xmlns="http://www.w3.org/2000/svg" viewBox="0 0 453.89 473">
  <polygon points="228.6 0 156.1 145 301.1 145 228.6 0"/>
  <polygon points="152.5 164 80 309 225 309 152.5 164"/>
  <polygon points="304.5 164 232 309 377 309 304.5 164"/>
  <polygon points="72.5 328 0 473 145 473 72.5 328"/>
  <polygon points="229.39 328 156.89 473 301.89 473 229.39 328"/>
  <polygon points="381.39 328 308.89 473 453.89 473 381.39 328"/>
  <polygon points="229.39 298 156.89 153 301.89 153 229.39 298"/>
  <polygon points="152.61 462 80.11 317 225.11 317 152.61 462"/>
  <polygon points="306.61 462 234.11 317 379.11 317 306.61 462"/>
</svg>