<?xml version="1.0" encoding="UTF-8"?>
<svg id="Ebene_1" data-name="Ebene 1" xmlns="http://www.w3.org/2000/svg" viewBox="0 0 441.97 434.76">
  <g>
    <rect x="70.37" y="67.25" width="302.68" height="302.68" transform="translate(-89.63 220.79) rotate(-45)"/>
    <path d="M221.71,5.27l213.32,213.32-213.32,213.32L8.39,218.59,221.71,5.27M221.71,3.86L6.97,218.59l214.73,214.73,214.73-214.73L221.71,3.86h0Z"/>
  </g>
  <g>
    <polygon points="1.8 3.79 213.01 .52 4.98 209.14 1.8 3.79"/>
    <path d="M211.79,1.04L5.46,207.95,2.31,4.29l1.13-.02L211.79,1.04M214.23,0L3.42,3.27l-2.12.03,3.21,207.03L214.23,0h0Z"/>
  </g>
  <g>
    <polygon points="229.16 1.15 440.39 3.14 438.45 208.5 229.16 1.15"/>
    <path d="M230.39,1.66l208.37,1.96h1.13s-1.92,203.69-1.92,203.69L230.39,1.66M227.94.64l211.01,209.05,1.95-207.04-2.13-.02L227.94.64h0Z"/>
  </g>
  <g>
    <polygon points=".5 432.27 2.26 226.9 211.73 434.08 .5 432.27"/>
    <path d="M2.75,228.09l207.75,205.47-208.37-1.79h-1.13s1.75-203.69,1.75-203.69M1.78,225.72l-1.78,207.04,2.13.02,210.83,1.81L1.78,225.72h0Z"/>
  </g>
  <g>
    <polygon points="439.38 226.74 441.47 432.09 230.24 434.25 439.38 226.74"/>
    <path d="M438.89,227.92l2.07,203.68h-1.13s-208.37,2.13-208.37,2.13l207.42-205.81M439.86,225.55l-210.85,209.21,210.83-2.15,2.13-.02-2.11-207.04h0Z"/>
  </g>
</svg>