<?xml version="1.0" encoding="UTF-8"?>
<svg id="Ebene_1" data-name="Ebene 1" xmlns="http://www.w3.org/2000/svg" viewBox="0 0 480.07 480">
  <path d="M0,78.55c0,42.76,1.75,78.55,4.36,78.55,1.75,0,48,12.22,101.24,26.18,54.11,14.84,98.62,25.31,99.49,24.44,1.75-1.75-9.6-48.87-24.44-105.6L153.6,0H0v78.55Z"/>
  <path d="M192,6.11c.87,13.09,41.89,170.18,46.25,173.67,1.75,2.62,12.22-30.55,22.69-72.44,10.47-41.89,20.95-83.78,23.56-92.51,4.36-13.09-1.75-14.84-43.64-14.84-27.05,0-48.87,2.62-48.87,6.11Z"/>
  <path d="M314.18,36.65c-5.24,20.95-17.45,66.33-27.05,101.24-9.6,35.78-16.58,66.33-14.84,68.07s49.75-9.6,105.6-24.44l102.11-27.05V0h-156.22l-9.6,36.65Z"/>
  <path d="M0,239.13c0,46.25.87,48.87,20.07,44.51,10.47-2.62,54.11-13.96,96.87-24.44l76.8-20.07-85.53-20.07c-48-11.35-91.64-22.69-96.87-24.44-8.73-3.49-11.35,8.73-11.35,44.51Z"/>
  <path d="M384,212.95c-41.02,10.47-80.29,21.82-87.27,24.44-9.6,2.62,157.09,50.62,178.91,50.62,2.62,0,4.36-21.82,4.36-48,0-54.98,6.11-54.11-96-27.05Z"/>
  <path d="M165.82,279.27c-12.22,4.36-54.11,16.58-93.38,27.05L0,324.65v155.35h153.6l23.56-91.64c13.09-49.75,26.18-96.87,28.8-104.73,6.11-14.84-6.11-15.71-40.15-4.36Z"/>
  <path d="M270.55,275.78c0,3.49,7.85,34.91,16.58,68.07,9.6,34.04,21.82,78.55,27.05,98.62l9.6,37.53h156.22v-154.47l-89.02-24.44c-49.75-13.09-96.87-26.18-104.73-28.8-8.73-1.75-15.71-.87-15.71,3.49Z"/>
  <path d="M227.78,328.15c-20.95,82.91-35.78,141.38-35.78,146.62,0,2.62,21.82,5.24,48.87,5.24,41.89,0,48-1.75,43.64-15.71-2.62-7.85-13.09-48-22.69-89.02-10.47-41.02-20.07-75.93-21.82-77.67-1.75-.87-6.98,12.22-12.22,30.55Z"/>
</svg>